<?xml version="1.0" encoding="UTF-8"?>
<svg id="Layer_2" data-name="Layer 2" xmlns="http://www.w3.org/2000/svg" viewBox="0 0 1849.35 972.22">
  <defs>
    <style>
      .cls-1 {
        fill: #404d31;
        stroke: #404d31;
        stroke-miterlimit: 10;
        stroke-width: 7px;
      }
    </style>
  </defs>
  <polygon class="cls-1" points="460.74 387.05 461.02 116.25 412.9 46.12 426.65 29.62 461.02 20 483.02 3.5 542.15 3.5 564.14 20 598.52 29.62 613.64 46.12 564.14 116.25 564.14 387.05 460.74 387.05"/>
  <circle class="cls-1" cx="1431.06" cy="785.17" r="183.56"/>
  <path class="cls-1" d="M1232.58,697.86c-.43.98-.84,1.95-1.25,2.94"/>
  <circle class="cls-1" cx="999.32" cy="785.17" r="183.56"/>
  <line class="cls-1" x1="1235.81" y1="697.86" x2="1232.58" y2="697.86"/>
  <circle class="cls-1" cx="506.4" cy="880.72" r="88"/>
  <circle class="cls-1" cx="705.77" cy="880.72" r="88"/>
  <polygon class="cls-1" points="402.9 711.76 271.03 711.76 271.03 726.09 9.66 944.13 397.32 944.13 397.32 728.26 402.9 728.26 402.9 711.76"/>
  <polyline class="cls-1" points="1286.55 238.61 1286.55 387.04 1129.42 387.04 1129.42 238.61"/>
  <path class="cls-1" d="M1129.49,244.08c0-47.08,35.17-85.25,78.54-85.25,43.38,0,78.54,38.17,78.54,85.25"/>
  <path class="cls-1" d="M369.59,541.11c0,85.81,20.93,155.37,46.75,155.37l382.93,1.37c73.51-178.26,328.86-174.06,398.74,0h34.58c74.65-174.22,325.07-170.19,396.31-.12l73.73-1.32-1.37-445.42,103.41,1.37,39.31-88.07h-512.61s0,222.74,0,222.74H416.34c-25.82,0-46.75,68.25-46.75,154.06Z"/>
  <line class="cls-1" x1="416.34" y1="387.05" x2="415.24" y2="387.05"/>
  <path class="cls-1" d="M276.03,220.28l34.37-27.23v-37.19c0-6.73,6.2-12.18,13.84-12.18h37.88c7.65,0,14.97,5.46,14.97,12.19l-.69,37.18,34.37,27.23v168.76h-134.75v-168.76Z"/>
  <polyline class="cls-1" points="950 272.9 950 386.41 792.87 386.41 792.87 272.9"/>
  <path class="cls-1" d="M792.94,275.62c0-36,35.17-65.19,78.54-65.19,43.38,0,78.54,29.19,78.54,65.19"/>
  <path class="cls-1" d="M1219.35,139.4v-31.82c0-3.18-1.88-5.76-4.19-5.76h-14.3c-2.32,0-4.19,2.58-4.19,5.76v31.82c0,3.16,1.86,5.72,4.16,5.72h14.36c2.3,0,4.16-2.56,4.16-5.72Z"/>
  <rect class="cls-1" x="1203.88" y="148.56" width="8.25" height="3.44"/>
  <rect class="cls-1" x="1206.39" y="92.19" width="3.22" height="6.65"/>
  <polyline class="cls-1" points="688.75 387.05 688.75 358.93 727.94 358.63 714.19 333.5 714.19 286.75 688.75 277.12 688.75 233.12 678.44 233.12 678.44 277.12 653 286.75 653 334.18 639.26 359.62 678.44 358.93 678.44 387.05"/>
</svg>