<?xml version="1.0" encoding="UTF-8"?>
<svg xmlns="http://www.w3.org/2000/svg" viewBox="0 0 1926 1081.5">
  <defs>
    <style>
      .cls-1 {
        stroke: #603813;
      }

      .cls-1, .cls-2 {
        fill: #603813;
      }

      .cls-1, .cls-3 {
        stroke-miterlimit: 10;
      }

      .cls-4 {
        stroke-linejoin: round;
      }

      .cls-4, .cls-3 {
        fill: #fff;
        stroke: #fff;
        stroke-width: 2px;
      }

      .cls-2 {
        stroke-width: 0px;
      }
    </style>
  </defs>
  <g id="Mountains">
    <polygon class="cls-1" points="272.68 230.21 89.3 230.21 176.5 121.5 272.68 230.21"/>
    <polygon class="cls-1" points="653.88 295.92 483.89 289 548.5 194.5 653.88 295.92"/>
    <polygon class="cls-1" points="1055.56 198.84 856.7 198.84 928.5 47.5 1055.56 198.84"/>
    <polygon class="cls-1" points="1437.42 234 1246.27 230.21 1339.5 144.5 1437.42 234"/>
    <polygon class="cls-2" points="1926 337.81 1926 1081 0 1081 0 337.81 89.3 230.21 272.69 230.21 414.5 390.5 483.89 289 653.88 295.92 761.5 399.5 856.7 198.84 1055.56 198.84 1153.5 315.5 1246.27 230.21 1298.22 231.24 1360.22 232.47 1437.42 234 1560.5 346.5 1636.23 253.77 1747.5 117.5 1856.05 253.77 1926 337.81"/>
  </g>
  <g id="Snow">
    <path class="cls-4" d="M272.68,230.21c-19.49,0-29.74-11.29-58.46,0-7.01,2.75-14.85,22.39-45.79,6.84s-37.68,1.37-52.95-6.84c-1.02-.55-3.7-2.37-7.73-2.86-6.75-.83-11.98,2.86-18.46,2.86,29.07-36.24,58.13-72.47,87.2-108.71l96.18,108.71Z"/>
    <path class="cls-4" d="M653.88,295.92c-17.71-.72-20.9,16.09-53.14-2.16s-58.1,8.06-76.17-3.1-27.12-1.1-40.68-1.66c21.54-31.5,43.07-63,64.61-94.5l105.38,101.42Z"/>
    <path class="cls-3" d="M1055.56,198.84c-16.41-.38-22.1-14.66-50.08,0s-34.39-10.66-65.19,0-31.66,2.97-53.37,0c-11.48-1.57-12.53,13.65-30.23,0,23.93-50.45,47.87-100.89,71.8-151.34l127.06,151.34Z"/>
    <path class="cls-3" d="M1437.42,234c-15.92-6.5-16.33-7.33-42.75-.85-27.67,6.79-26.52-7.04-54.01-1.07-21.47,4.66-36.65,6.62-50.19,3.79-17.44-3.65-30.72-10.36-44.2-5.66,31.08-28.57,62.15-57.14,93.23-85.71l97.92,89.5Z"/>
    <path class="cls-3" d="M1856.05,253.77c-4.81,11.99-30.7,5.57-47.01,0-14.52-4.96-42.04-7.22-56.89,0-31.2,19.91-42.49-5.01-83.32,0-4.91.6-13.59,10.2-32.6,0,0,0,74.18-90.85,111.27-136.27l108.55,136.27Z"/>
  </g>
</svg>