<?xml version="1.0" encoding="UTF-8"?>
<svg id="Layer_1" data-name="Layer 1" xmlns="http://www.w3.org/2000/svg" viewBox="0 0 1921 1034.92">
  <defs>
    <style>
      .cls-1 {
        fill: #603813;
        stroke: #603813;
      }

      .cls-1, .cls-2 {
        stroke-miterlimit: 10;
      }

      .cls-2 {
        fill: #fff;
        stroke: #fff;
      }
    </style>
  </defs>
  <polygon class="cls-2" points="270.18 183.63 86.8 183.63 174 74.92 270.18 183.63"/>
  <polygon class="cls-2" points="651.38 249.34 481.39 242.42 546 147.92 651.38 249.34"/>
  <polygon class="cls-2" points="1053.06 152.26 854.2 152.26 926 .92 1053.06 152.26"/>
  <polygon class="cls-2" points="1434.92 187.42 1243.77 183.63 1337 97.92 1434.92 187.42"/>
  <polygon class="cls-2" points="1853.55 207.19 1633.73 207.19 1745 70.92 1853.55 207.19"/>
  <polygon class="cls-1" points="1920.5 291.23 1920.5 1034.42 .5 1034.42 .5 291.23 86.8 183.63 270.19 183.63 412 343.92 481.39 242.42 651.38 249.34 759 352.92 854.2 152.26 1053.06 152.26 1151 268.92 1243.77 183.63 1434.92 187.42 1558 299.92 1633.73 207.19 1853.55 207.19 1920.5 291.23"/>
</svg>