<?xml version="1.0" encoding="UTF-8"?>
<svg id="Layer_1" data-name="Layer 1" xmlns="http://www.w3.org/2000/svg" viewBox="0 0 1920 1080">
  <defs>
    <style>
      .cls-1 {
        fill: #603813;
        stroke: #603813;
      }

      .cls-1, .cls-2 {
        stroke-miterlimit: 10;
      }

      .cls-2 {
        fill: #fff;
        stroke: #fff;
      }
    </style>
  </defs>
  <polygon class="cls-2" points="269.68 229.21 86.3 229.21 173.5 120.5 269.68 229.21"/>
  <polygon class="cls-2" points="650.88 294.92 480.89 288 545.5 193.5 650.88 294.92"/>
  <polygon class="cls-2" points="1052.56 197.84 853.7 197.84 925.5 46.5 1052.56 197.84"/>
  <polygon class="cls-2" points="1434.42 233 1243.27 229.21 1336.5 143.5 1434.42 233"/>
  <polygon class="cls-2" points="1853.05 252.77 1633.23 252.77 1744.5 116.5 1853.05 252.77"/>
  <polygon class="cls-1" points="1923 336.81 1920 1080 0 1080 0 336.81 86.3 229.21 269.69 229.21 411.5 389.5 480.89 288 650.88 294.92 758.5 398.5 853.7 197.84 1052.56 197.84 1150.5 314.5 1243.27 229.21 1295.22 230.24 1357.22 231.47 1434.42 233 1557.5 345.5 1633.23 252.77 1853.05 252.77 1923 336.81"/>
</svg>