<?xml version="1.0" encoding="UTF-8"?>
<svg id="Layer_1" data-name="Layer 1" xmlns="http://www.w3.org/2000/svg" viewBox="0 0 1921 104.5">
  <defs>
    <style>
      .cls-1 {
        fill: #fff;
      }

      .cls-1, .cls-2, .cls-3 {
        stroke: #000;
        stroke-miterlimit: 10;
      }

      .cls-2 {
        fill: none;
      }

      .cls-3 {
        fill: #999;
      }
    </style>
  </defs>
  <rect class="cls-3" x=".5" y=".5" width="1920" height="103.5"/>
  <polyline class="cls-3" points="78 27.5 23.51 52.25 73 69.5 23.51 88.66"/>
  <polyline class="cls-3" points="1895.66 27.5 1828.58 27.5 1828.58 58.08 1828.58 88.66 1895.66 88.66"/>
  <line class="cls-3" x1="1895.66" y1="58.08" x2="1828.58" y2="58.08"/>
  <line class="cls-1" x1="385.54" y1="104" x2="385.54" y2=".5"/>
  <line class="cls-1" x1="769.08" y1="104" x2="769.08"/>
  <line class="cls-1" x1="1153.89" y1="104.5" x2="1153.89"/>
  <line class="cls-1" x1="1537.44" y1="104.5" x2="1537.44" y2=".5"/>
  <line class="cls-1" x1="412" y1="19.5" x2="412" y2="79.8"/>
  <polyline class="cls-2" points="790.6 27.5 836.17 27.5 790.6 58.08 836.17 58.08"/>
  <polyline class="cls-2" points="1171.61 27.5 1210.85 27.5 1171.61 49.65 1210.85 69.67 1171.61 69.67"/>
  <polyline class="cls-2" points="1577.94 69.67 1577.94 19.5 1550.09 48.59 1584.27 48.59"/>
</svg>