<?xml version="1.0" encoding="UTF-8"?>
<svg id="Layer_1" data-name="Layer 1" xmlns="http://www.w3.org/2000/svg" viewBox="0 0 1208.44 399.71">
  <defs>
    <style>
      .cls-1 {
        fill: #000;
        stroke: #000;
        stroke-miterlimit: 10;
        stroke-width: 7px;
      }
    </style>
  </defs>
  <polygon class="cls-1" points="193.19 159.55 193.3 49.37 173.72 20.84 179.32 14.13 193.3 10.21 202.25 3.5 226.31 3.5 235.26 10.21 249.24 14.13 255.4 20.84 235.26 49.37 235.26 159.55 193.19 159.55"/>
  <circle class="cls-1" cx="587.97" cy="321.53" r="74.68"/>
  <path class="cls-1" d="M507.22,286c-.17.4-.34.79-.51,1.2"/>
  <circle class="cls-1" cx="412.31" cy="321.53" r="74.68"/>
  <line class="cls-1" x1="508.53" y1="286" x2="507.22" y2="286"/>
  <circle class="cls-1" cx="211.76" cy="360.4" r="35.8"/>
  <circle class="cls-1" cx="292.88" cy="360.4" r="35.8"/>
  <polygon class="cls-1" points="169.65 291.66 116 291.66 116 297.49 9.66 386.2 167.38 386.2 167.38 298.37 169.65 298.37 169.65 291.66"/>
  <polyline class="cls-1" points="529.17 99.16 529.17 159.55 465.24 159.55 465.24 99.16"/>
  <path class="cls-1" d="M465.27,101.38c0-19.16,14.31-34.68,31.96-34.68,17.65,0,31.96,15.53,31.96,34.68"/>
  <path class="cls-1" d="M156.1,222.23c0,34.91,8.51,63.21,19.02,63.21l155.8.56c29.91-72.53,133.8-70.82,162.23,0h14.07c30.37-70.88,132.26-69.24,161.24-.05l30-.54-.56-181.22,42.07.56,15.99-35.83h-208.56s0,90.63,0,90.63H175.12c-10.51,0-19.02,27.77-19.02,62.68Z"/>
  <line class="cls-1" x1="175.12" y1="159.55" x2="174.67" y2="159.55"/>
  <polyline class="cls-1" points="392.24 113.11 392.24 159.29 328.31 159.29 328.31 113.11"/>
  <path class="cls-1" d="M328.34,114.22c0-14.65,14.31-26.52,31.96-26.52s31.96,11.88,31.96,26.52"/>
  <path class="cls-1" d="M501.83,58.79v-12.95c0-1.29-.76-2.34-1.71-2.34h-5.82c-.94,0-1.71,1.05-1.71,2.34v12.95c0,1.29.76,2.33,1.69,2.33h5.84c.94,0,1.69-1.04,1.69-2.33Z"/>
  <rect class="cls-1" x="495.54" y="62.52" width="3.36" height="1.4"/>
  <rect class="cls-1" x="496.56" y="39.58" width="1.31" height="2.7"/>
  <polyline class="cls-1" points="285.95 159.55 285.95 148.11 301.9 147.99 296.3 137.76 296.3 118.74 285.95 114.83 285.95 96.92 281.76 96.92 281.76 114.83 271.41 118.74 271.41 138.04 265.82 148.39 281.76 148.11 281.76 159.55"/>
  <circle class="cls-1" cx="790.18" cy="360.41" r="35.8"/>
  <circle class="cls-1" cx="1027.19" cy="360.41" r="35.8"/>
  <circle class="cls-1" cx="908.69" cy="360.41" r="35.8"/>
  <circle class="cls-1" cx="1145.7" cy="360.41" r="35.8"/>
  <rect class="cls-1" x="754.38" y="159.38" width="427.12" height="139.79"/>
  <polygon class="cls-1" points="794.79 157 1182.17 157 1200.96 134.49 794.79 134.49 794.79 157"/>
  <path class="cls-1" d="M118.63,92.21l14.06-11.14v-15.21c0-2.75,2.53-4.98,5.66-4.98h15.49c3.13,0,6.12,2.23,6.12,4.99l-.28,15.21,14.06,11.14v69.02h-55.11v-69.02Z"/>
</svg>